Coordinates
version=1
nRows=9
nColumns=38
inDegrees=yes

Units are S.I. units (second, meters, Newtons, ...)
Angles are in degrees.

endheader
time	pelvis_tilt	pelvis_list	pelvis_rotation	pelvis_tx	pelvis_ty	pelvis_tz	hip_flexion_r	hip_adduction_r	hip_rotation_r	knee_angle_r	ankle_angle_r	subtalar_angle_r	mtp_angle_r	hip_flexion_l	hip_adduction_l	hip_rotation_l	knee_angle_l	ankle_angle_l	subtalar_angle_l	mtp_angle_l	lumbar_extension	lumbar_bending	lumbar_rotation	arm_flex_r	arm_add_r	arm_rot_r	elbow_flex_r	pro_sup_r	wrist_flex_r	wrist_dev_r	arm_flex_l	arm_add_l	arm_rot_l	elbow_flex_l	pro_sup_l	wrist_flex_l	wrist_dev_l
      1.62000000	      3.23786615	      0.89197562	     -0.31735903	      0.38888541	      0.94094853	     -0.28611312	     23.88629442	     -5.39722711	    -10.49297993	    -34.12152065	      6.48754366	     -8.77603143	      0.00000000	     -5.55400018	      3.73668021	     -4.08396635	    -13.23613465	     13.73593846	     -8.41854510	      0.00000000	    -15.08703831	      1.83418452	     -7.19982899	     -1.79140364	     -6.18720110	     46.60860501	     22.49060537	     43.88947213	      0.00000000	      0.00000000	     18.90663185	     -8.33879689	     46.99596296	     29.01199894	     43.88947213	      0.00000000	      0.00000000
      1.63000000	      2.99611024	      1.18984502	     -0.18703868	      0.39839328	      0.93933874	     -0.28618115	     24.21112797	     -5.47680653	    -10.60291918	    -30.84027781	      6.44948339	     -8.03510434	      0.00000000	     -6.07412222	      4.04367820	     -3.93860314	    -12.99585921	     14.09873568	     -8.28222704	      0.00000000	    -14.84181876	      1.58451208	     -7.42725754	     -1.93169169	     -6.09633470	     46.61559108	     22.44953075	     43.89351068	      0.00000000	      0.00000000	     19.80868612	     -8.46958550	     46.92472606	     29.35689879	     43.89351068	      0.00000000	      0.00000000
      1.64000000	      3.21802430	      1.19699288	      0.05714483	      0.40828795	      0.93824292	     -0.28609224	     23.83894082	     -5.40600719	    -11.25362901	    -27.48467384	      6.84308634	     -6.15939853	      0.00000000	     -7.18696897	      3.98928301	     -3.94563256	    -12.65930160	     14.58471491	     -7.88504872	      0.00000000	    -15.11430751	      1.64233945	     -7.55414705	     -2.11745744	     -5.97295685	     46.55474605	     22.17846486	     43.91512173	      0.00000000	      0.00000000	     20.74440015	     -8.77398082	     46.98195201	     30.71404112	     43.91512173	      0.00000000	      0.00000000
      1.65000000	      2.96272817	      1.55046814	      0.17530359	      0.41803482	      0.93633476	     -0.28595357	     24.12884788	     -5.51770308	    -11.29187671	    -24.41452540	      6.78168693	     -5.34937070	      0.00000000	     -7.63676327	      4.33375055	     -3.80097785	    -12.58422744	     14.98922306	     -7.77095149	      0.00000000	    -14.83431962	      1.30833630	     -7.76997827	     -2.25483009	     -5.89579487	     46.56096612	     22.14050977	     43.91840345	      0.00000000	      0.00000000	     21.59504616	     -8.86298157	     46.89192657	     31.02177333	     43.91840345	      0.00000000	      0.00000000
      1.66000000	      3.30418078	      1.61643642	      0.31423722	      0.42833357	      0.93522090	     -0.28568095	     23.79417854	     -5.60950414	    -12.36842246	    -21.77973444	      7.10925320	     -2.78526259	      0.00000000	     -8.85751897	      4.34277122	     -3.71110560	    -12.35143293	     15.28392927	     -7.47133130	      0.00000000	    -15.19601279	      1.29594738	     -7.74190753	     -2.51469359	     -5.75999309	     46.50722897	     21.87216696	     43.93814785	      0.00000000	      0.00000000	     22.51949711	     -9.07176146	     46.88154649	     32.35632855	     43.93814785	      0.00000000	      0.00000000
      1.67000000	      3.20684580	      1.95963404	      0.36278348	      0.43840331	      0.93348780	     -0.28523014	     23.89379072	     -5.74370349	    -12.51503126	    -19.12359419	      7.21579730	     -1.61539477	      0.00000000	     -9.41539316	      4.63472531	     -3.86747730	    -12.39151045	     15.67664292	     -7.24271088	      0.00000000	    -15.05725852	      0.94468341	     -7.82453520	     -2.67138795	     -5.64108752	     46.49948835	     21.78451858	     43.94677964	      0.00000000	      0.00000000	     23.27716574	     -9.20246723	     46.78528974	     32.95880148	     43.94677964	      0.00000000	      0.00000000
      1.68000000	      3.42994879	      2.04390991	      0.37775327	      0.44882141	      0.93213607	     -0.28458587	     23.61903633	     -5.70568718	    -13.22545339	    -16.75670190	      7.60306455	      0.27875169	      0.00000000	    -10.42931532	      4.65995899	     -4.27956603	    -12.31254550	     16.10681468	     -6.69635879	      0.00000000	    -15.29066022	      0.88629194	     -7.72676489	     -2.78555383	     -5.54668747	     46.44460616	     21.56450207	     43.96739616	      0.00000000	      0.00000000	     23.99340318	     -9.45273515	     46.72453578	     34.27903529	     43.96739616	      0.00000000	      0.00000000
      1.69000000	      3.21831660	      2.07116300	      0.94134454	      0.45840494	      0.93015794	     -0.28485996	     23.85132152	     -5.86914350	    -14.42487024	    -14.80156259	      7.73173816	      2.05348507	      0.00000000	    -10.52727232	      4.48234936	     -4.23798518	    -13.04191505	     16.81982211	     -5.88563940	      0.00000000	    -15.12089706	      1.03618064	     -8.18837864	     -2.80045759	     -5.47867125	     46.39057319	     21.37735936	     43.99370436	      0.00000000	      0.00000000	     24.57241473	     -9.71583737	     46.49781618	     35.63231504	     43.99370436	      0.00000000	      0.00000000
      1.70000000	      3.11367174	      2.37198179	      0.99674816	      0.46860587	      0.92839566	     -0.28430683	     24.05503865	     -5.96835116	    -14.60030974	    -13.18733279	      7.87286683	      2.41100189	      0.00000000	    -11.02845666	      4.71736695	     -4.14731051	    -13.22848553	     17.06899426	     -5.73708785	      0.00000000	    -14.99416867	      0.75921043	     -8.22893047	     -2.91351337	     -5.42068852	     46.39950046	     21.35121266	     43.99728301	      0.00000000	      0.00000000	     25.24173870	     -9.68158738	     46.38098528	     35.93206655	     43.99728301	      0.00000000	      0.00000000
